<?xml version="1.0" encoding="UTF-8" standalone="no"?>
<!-- Created with Inkscape (http://www.inkscape.org/) -->

<svg
   xmlns:dc="http://purl.org/dc/elements/1.1/"
   xmlns:cc="http://creativecommons.org/ns#"
   xmlns:rdf="http://www.w3.org/1999/02/22-rdf-syntax-ns#"
   xmlns:svg="http://www.w3.org/2000/svg"
   xmlns="http://www.w3.org/2000/svg"
   xmlns:sodipodi="http://sodipodi.sourceforge.net/DTD/sodipodi-0.dtd"
   xmlns:inkscape="http://www.inkscape.org/namespaces/inkscape"
   width="60.001247mm"
   height="8.5661888mm"
   viewBox="0 0 60.001247 8.5661888"
   version="1.1"
   id="svg4691"
   sodipodi:docname="logo_navbar.svg"
   inkscape:version="0.92.1 r15371">
  <defs
     id="defs4685" />
  <sodipodi:namedview
     id="base"
     pagecolor="#ffffff"
     bordercolor="#666666"
     borderopacity="1.0"
     inkscape:pageopacity="0.0"
     inkscape:pageshadow="2"
     inkscape:zoom="11.2"
     inkscape:cx="36.081194"
     inkscape:cy="19.30072"
     inkscape:document-units="mm"
     inkscape:current-layer="layer1"
     showgrid="false"
     fit-margin-top="0"
     fit-margin-left="0"
     fit-margin-right="0"
     fit-margin-bottom="0"
     inkscape:window-width="1920"
     inkscape:window-height="1016"
     inkscape:window-x="0"
     inkscape:window-y="27"
     inkscape:window-maximized="1" />
  <metadata
     id="metadata4688">
    <rdf:RDF>
      <cc:Work
         rdf:about="">
        <dc:format>image/svg+xml</dc:format>
        <dc:type
           rdf:resource="http://purl.org/dc/dcmitype/StillImage" />
        <dc:title></dc:title>
      </cc:Work>
    </rdf:RDF>
  </metadata>
  <g
     inkscape:label="Calque 1"
     inkscape:groupmode="layer"
     id="layer1"
     transform="translate(-83.392234,-106.75259)">
    <path
       inkscape:connector-curvature="0"
       id="path3064-4-1-7-7"
       style="fill:#920f1e;fill-opacity:1;fill-rule:nonzero;stroke:#231f20;stroke-width:0.20083997;stroke-miterlimit:4;stroke-dasharray:none;stroke-opacity:1;opacity:0.94"
       d="m 87.102326,115.27143 c -0.379588,-0.70988 -0.574738,-1.45601 -0.601431,-2.16221 0.05046,0.0208 0.102847,0.039 0.155479,0.0538 0.299922,0.0847 0.640847,0.10259 0.946375,0.0459 1.007381,-0.18561 1.890577,-0.65432 2.58523,-1.3073 -1.384624,-0.11105 -2.648747,-0.7975 -3.499299,-1.85869 -0.499507,-0.62327 -0.856668,-1.37492 -1.01182,-2.2156 -0.04744,-0.25732 -0.07414,-0.51415 -0.08159,-0.76788 -0.399669,0.57348 -0.679003,1.22998 -0.811226,1.9294 -0.491556,-0.42912 -0.903863,-0.9529 -1.205874,-1.55082 -0.109961,0.58746 -0.117244,1.20446 -0.0023,1.8274 0.06151,0.33406 0.156071,0.65323 0.277912,0.957 0.0544,0.11114 0.299422,0.62177 0.372811,0.74177 0.637917,1.04219 0.896333,2.45226 0.686038,3.64985"
       sodipodi:nodetypes="cccccccccccccc"
       inkscape:export-filename="/home/tom/tmp/deliverous/documents/marketing/illustrations/navbar.png"
       inkscape:export-xdpi="89"
       inkscape:export-ydpi="89" />
    <path
       inkscape:connector-curvature="0"
       id="path3072-6-7-1-1"
       style="fill:#231f20;fill-opacity:1;fill-rule:nonzero;stroke:none;stroke-width:0.33072916"
       d="m 85.653742,109.75294 c 0.03833,0 0.07531,-0.0209 0.09406,-0.0573 0.02662,-0.0519 0.0063,-0.11548 -0.04569,-0.14218 -0.448541,-0.2308 -0.851809,-0.56218 -1.165872,-0.95834 -0.0364,-0.0456 -0.102764,-0.0534 -0.148372,-0.0172 -0.04577,0.0363 -0.05339,0.10276 -0.01723,0.14837 0.332892,0.4195 0.759844,0.77047 1.234996,1.01499 0.01541,0.008 0.03191,0.0118 0.04812,0.0118"
       inkscape:export-filename="/home/tom/tmp/deliverous/documents/marketing/illustrations/navbar.png"
       inkscape:export-xdpi="89"
       inkscape:export-ydpi="89" />
    <path
       inkscape:connector-curvature="0"
       id="path3080-9-5-2-4"
       style="fill:#ffffff;fill-opacity:1;fill-rule:nonzero;stroke:none;stroke-width:0.33072916"
       d="m 85.449067,110.95568 c 0,0.31348 0.25398,0.56721 0.567121,0.56721 0.313313,0 0.567376,-0.25373 0.567376,-0.56721 0,-0.31339 -0.254063,-0.56712 -0.567376,-0.56712 -0.313141,0 -0.567121,0.25373 -0.567121,0.56712"
       inkscape:export-filename="/home/tom/tmp/deliverous/documents/marketing/illustrations/navbar.png"
       inkscape:export-xdpi="89"
       inkscape:export-ydpi="89" />
    <path
       inkscape:connector-curvature="0"
       id="path3084-5-2-3-5"
       style="fill:#231f20;fill-opacity:1;fill-rule:nonzero;stroke:none;stroke-width:0.33072916"
       d="m 86.016225,110.5293 c 0.235234,0 0.426531,0.19138 0.426531,0.42636 0,0.23507 -0.191297,0.42645 -0.426531,0.42645 -0.235069,0 -0.426453,-0.19138 -0.426453,-0.42645 0,-0.23498 0.191384,-0.42636 0.426453,-0.42636 m 0,1.13432 c 0.390379,0 0.708041,-0.31749 0.708041,-0.70796 0,-0.39038 -0.317662,-0.70787 -0.708041,-0.70787 -0.390383,0 -0.70788,0.31749 -0.70788,0.70787 0,0.39047 0.317497,0.70796 0.70788,0.70796"
       inkscape:export-filename="/home/tom/tmp/deliverous/documents/marketing/illustrations/navbar.png"
       inkscape:export-xdpi="89"
       inkscape:export-ydpi="89" />
    <path
       inkscape:connector-curvature="0"
       id="path3088-5-8-1-4"
       style="fill:#231f20;fill-opacity:1;fill-rule:nonzero;stroke:none;stroke-width:0.33072916"
       d="m 89.615861,111.87418 c 0,0.27406 0.222091,0.49624 0.496239,0.49624 0.274066,0 0.49616,-0.22218 0.49616,-0.49624 0,-0.27406 -0.222094,-0.49624 -0.49616,-0.49624 -0.274148,0 -0.496239,0.22218 -0.496239,0.49624"
       inkscape:export-filename="/home/tom/tmp/deliverous/documents/marketing/illustrations/navbar.png"
       inkscape:export-xdpi="89"
       inkscape:export-ydpi="89" />
    <path
       inkscape:connector-curvature="0"
       id="path3092-7-1-9-3"
       style="fill:#231f20;fill-opacity:1;fill-rule:nonzero;stroke:none;stroke-width:0.33072916"
       d="m 85.726185,110.91915 c 0,0.11766 0.0954,0.21273 0.212725,0.21273 0.117743,0 0.213142,-0.0951 0.213142,-0.21273 0,-0.11765 -0.0954,-0.21306 -0.213142,-0.21306 -0.117326,0 -0.212725,0.0954 -0.212725,0.21306"
       inkscape:export-filename="/home/tom/tmp/deliverous/documents/marketing/illustrations/navbar.png"
       inkscape:export-xdpi="89"
       inkscape:export-ydpi="89" />
    <path
       inkscape:connector-curvature="0"
       id="path3096-8-8-8-5"
       style="fill:#231f20;fill-opacity:1;fill-rule:nonzero;stroke:none;stroke-width:0.33072916"
       d="m 88.474419,113.07342 c 0.05833,0 0.105443,-0.0473 0.105612,-0.10561 0,-0.0582 -0.0472,-0.10552 -0.105444,-0.10552 -0.0095,0 -0.948716,-0.009 -1.228222,-0.60729 -0.02494,-0.0525 -0.0877,-0.0748 -0.140335,-0.0509 -0.0528,0.0248 -0.07565,0.0874 -0.05105,0.1405 0.336656,0.72052 1.3755,0.7288 1.419434,0.7288"
       inkscape:export-filename="/home/tom/tmp/deliverous/documents/marketing/illustrations/navbar.png"
       inkscape:export-xdpi="89"
       inkscape:export-ydpi="89" />
    <path
       inkscape:connector-curvature="0"
       id="path3100-0-4-8-5"
       style="fill:#ffffff;fill-opacity:1;fill-rule:nonzero;stroke:none;stroke-width:0.33072916"
       d="m 85.937845,110.67529 v 0.20837 l -0.251133,-0.0762 z"
       inkscape:export-filename="/home/tom/tmp/deliverous/documents/marketing/illustrations/navbar.png"
       inkscape:export-xdpi="89"
       inkscape:export-ydpi="89" />
    <text
       xml:space="preserve"
       style="font-style:normal;font-variant:normal;font-weight:normal;font-stretch:normal;font-size:3.96875024px;line-height:0%;font-family:'Linux Libertine O';-inkscape-font-specification:'Linux Libertine O';text-align:start;letter-spacing:0px;word-spacing:0px;writing-mode:lr-tb;text-anchor:start;fill:#ededeb;fill-opacity:0.89803922;stroke:none;stroke-width:0.33072916"
       x="91.460007"
       y="114.98014"
       id="text3279-9-6-0-1-8"
       transform="rotate(0.07792549)"
       inkscape:export-filename="/home/tom/tmp/deliverous/documents/marketing/illustrations/navbar.png"
       inkscape:export-xdpi="89"
       inkscape:export-ydpi="89"><tspan
         sodipodi:role="line"
         id="tspan3281-7-5-2-1-3"
         x="91.460007"
         y="114.98014"
         style="font-size:11.9248848px;line-height:1;stroke-width:0.33072916">Deliverous</tspan></text>
  </g>
</svg>
